<svg id="afbd64d7-ba1b-4643-b522-e272637a9530" data-name="Capa 1" xmlns="http://www.w3.org/2000/svg" viewBox="0 0 1366 492"><path d="M517.1,239.4c-20.6-11.2-30.5-34.3-30.5-67.5V106c0-38-16-58.7-51.4-58.7h-8.6v-27H156.2v27h-8.5C112.3,47.3,96.3,68,96.3,106v65.9c0,33.2-10,56.3-30.6,67.5A58.5,58.5,0,0,1,50,245.1,74.3,74.3,0,0,1,65.7,251c21,11,30.6,32.2,30.6,68.1v65c0,40.9,22.6,60.6,52,60.6h7.9v27H426.6v-27h7.9c29.4,0,52.1-19.7,52.1-60.6v-65c0-35.9,9.6-57.1,30.5-68.1a76.4,76.4,0,0,1,15.7-5.9,58.5,58.5,0,0,1-15.7-5.7" style="fill:#01277a"/><path d="M65.7,239.4c20.6-11.2,30.6-34.3,30.6-67.5V106c0-38,16-58.7,51.4-58.7h8.5v-27h-8.6c-43.3,0-74.2,21.3-81.6,64.1a56.8,56.8,0,0,0-.3,5.9,58.3,58.3,0,0,1,.3-5.9,125.7,125.7,0,0,0-1.8,21.1v67.2c0,33.9-7.3,58.2-55.6,58.2v29.2c50.5.1,55.6,26.2,55.6,58.2v67.9a116.8,116.8,0,0,0,1.7,20.4h0c8.1,46.9,44.2,65,81.7,65h8.6v-27h-7.9c-29.4,0-52-19.7-52-60.6v-65c0-35.9-9.6-57.1-30.6-68.1h0A74.3,74.3,0,0,0,50,245.1a58.5,58.5,0,0,0,15.7-5.7Z" style="fill:#037fff"/><path d="M518.6,172.7V105.5a126.1,126.1,0,0,0-1.7-21.1c.1,2,.2,3.9.2,5.9a56.8,56.8,0,0,0-.3-5.9c-7.4-42.8-38.2-64.1-81.6-64.1h-8.6v27h8.6c35.4,0,51.4,20.7,51.4,58.7v65.9c0,33.2,9.9,56.3,30.5,67.5h0a58.5,58.5,0,0,0,15.7,5.7,76.4,76.4,0,0,0-15.7,5.9h0c-20.9,11-30.5,32.2-30.5,68.1v65c0,40.9-22.7,60.6-52.1,60.6h-7.9v27h8.6c37.5,0,73.7-18.1,81.7-65h0a116.8,116.8,0,0,0,1.7-20.4v-68c0-31.9,5.2-58,55.6-58.1V230.9c-48.3,0-55.6-24.3-55.6-58.2" style="fill:#0ed894"/><path d="M161.7,303.5,178.9,283c15.6,13.5,31.3,21.2,51.5,21.2,17.7,0,28.9-8.1,28.9-20.5v-.4c0-11.7-6.5-18-36.8-25-34.7-8.3-54.3-18.6-54.3-48.6v-.5c0-28,23.3-47.3,55.7-47.3,23.8,0,42.6,7.2,59.2,20.5l-15.4,21.7c-14.7-11-29.4-16.8-44.3-16.8-16.7,0-26.5,8.6-26.5,19.3v.5c0,12.6,7.4,18.2,38.6,25.6,34.5,8.4,52.5,20.8,52.5,47.8v.4c0,30.6-24,48.7-58.3,48.7a100.4,100.4,0,0,1-68-26.1" style="fill:#fff"/><path d="M307.2,266.5V266c0-34.9,27-64.3,63.8-64.3,23.3,0,37.8,8.7,49.2,21.2l-17.5,18.9c-8.6-9.1-17.7-15.4-31.9-15.4-20.5,0-35.4,17.7-35.4,39.2v.4c0,21.9,15.1,39.6,36.8,39.6,13.3,0,23.1-6.3,31.9-15.3l17,16.7c-12.1,13.5-26.3,23.1-50.3,23.1-36.6,0-63.6-28.7-63.6-63.6" style="fill:#fff"/><path d="M654.1,217l17-20.3c11.7,9.7,24.1,15.8,39,15.8,11.8,0,18.9-4.6,18.9-12.3v-.4c0-7.3-4.5-11-26.4-16.6-26.3-6.7-43.3-14-43.3-40v-.3c0-23.8,19.1-39.5,45.8-39.5,19,0,35.3,6,48.5,16.7l-14.9,21.6c-11.6-8-23-12.9-34-12.9s-16.8,5.1-16.8,11.4v.4c0,8.6,5.6,11.4,28.2,17.2,26.5,6.9,41.5,16.4,41.5,39.2v.4c0,26-19.8,40.5-48.1,40.5A83.1,83.1,0,0,1,654.1,217" style="fill:#01277a"/><path d="M777.3,135.9h28.4v20.2c5.8-13.8,15.2-22.8,32-22v29.7h-1.5c-18.9,0-30.5,11.4-30.5,35.3v37H777.3Z" style="fill:#01277a"/><rect x="840.7" y="206.2" width="30.3" height="29.89" style="fill:#01277a"/><path d="M657.2,357.8v-.3c0-37.2,28.1-67.6,68.2-67.6,24.7,0,39.4,8.2,51.6,20.1l-18.3,21.1c-10.1-9.1-20.4-14.7-33.5-14.7-22,0-37.9,18.3-37.9,40.7v.4c0,22.4,15.5,41.1,37.9,41.1,15,0,24.1-6,34.4-15.3l18.3,18.4c-13.4,14.4-28.4,23.4-53.6,23.4-38.5,0-67.1-29.7-67.1-67.3" style="fill:#01277a"/><path d="M787.2,373.4V373c0-28.8,23.2-52.1,54.3-52.1s54,22.9,54,51.7v.4c0,28.7-23.1,52.1-54.3,52.1s-54-23-54-51.7m80.3,0V373c0-14.8-10.6-27.7-26.3-27.7s-26,12.5-26,27.3v.4c0,14.7,10.7,27.6,26.3,27.6s26-12.5,26-27.2" style="fill:#01277a"/><path d="M913.7,322.7h28.4v14.2c6.5-8.4,14.9-16,29.3-16,21.5,0,34,14.2,34,37.1v64.9H977V367c0-13.4-6.3-20.4-17.2-20.4s-17.7,7-17.7,20.4v55.9H913.7Z" style="fill:#01277a"/><path d="M1028.5,322.7h28.4v14.2c6.5-8.4,14.9-16,29.3-16,21.5,0,34,14.2,34,37.1v64.9h-28.4V367c0-13.4-6.4-20.4-17.2-20.4s-17.7,7-17.7,20.4v55.9h-28.4Z" style="fill:#01277a"/><path d="M1137.5,373.4V373c0-28.8,23.2-52.1,54.4-52.1s54,22.9,54,51.7v.4c0,28.7-23.2,52.1-54.4,52.1s-54-23-54-51.7m80.3,0V373c0-14.8-10.6-27.7-26.3-27.7s-26,12.5-26,27.3v.4c0,14.7,10.7,27.6,26.4,27.6s25.9-12.5,25.9-27.2" style="fill:#01277a"/><path d="M1264,322.7h28.4v20.2c5.8-13.8,15.1-22.8,32-22v29.7h-1.5c-18.9,0-30.5,11.4-30.5,35.3v37H1264Z" style="fill:#01277a"/></svg>